<svg width="34" height="33" viewBox="0 0 34 33" fill="none" xmlns="http://www.w3.org/2000/svg">
<rect width="34" height="33" fill="#F5F5F5"/>
<g id="Onboarding V.02">
<rect x="-135" y="-174" width="375" height="812" rx="30.1208" fill="#2A4BA0"/>
<g id="Text">
<path id="Your holiday shopping delivered to Screen one" d="M-85.65 -85V-93.85L-93 -106.6H-88.785L-83.82 -97.99L-78.87 -106.6H-74.655L-81.99 -93.85V-85H-85.65ZM-67.8075 -84.55C-69.4275 -84.55 -70.8425 -84.915 -72.0525 -85.645C-73.2625 -86.375 -74.2025 -87.38 -74.8725 -88.66C-75.5325 -89.95 -75.8625 -91.43 -75.8625 -93.1C-75.8625 -94.8 -75.5225 -96.29 -74.8425 -97.57C-74.1625 -98.85 -73.2175 -99.85 -72.0075 -100.57C-70.7975 -101.29 -69.3975 -101.65 -67.8075 -101.65C-66.1775 -101.65 -64.7575 -101.285 -63.5475 -100.555C-62.3375 -99.825 -61.3975 -98.815 -60.7275 -97.525C-60.0575 -96.245 -59.7225 -94.77 -59.7225 -93.1C-59.7225 -91.42 -60.0625 -89.935 -60.7425 -88.645C-61.4125 -87.365 -62.3525 -86.36 -63.5625 -85.63C-64.7725 -84.91 -66.1875 -84.55 -67.8075 -84.55ZM-67.8075 -87.94C-66.3675 -87.94 -65.2975 -88.42 -64.5975 -89.38C-63.8975 -90.34 -63.5475 -91.58 -63.5475 -93.1C-63.5475 -94.67 -63.9025 -95.92 -64.6125 -96.85C-65.3225 -97.79 -66.3875 -98.26 -67.8075 -98.26C-68.7775 -98.26 -69.5775 -98.04 -70.2075 -97.6C-70.8275 -97.17 -71.2875 -96.565 -71.5875 -95.785C-71.8875 -95.015 -72.0375 -94.12 -72.0375 -93.1C-72.0375 -91.53 -71.6825 -90.275 -70.9725 -89.335C-70.2525 -88.405 -69.1975 -87.94 -67.8075 -87.94ZM-50.3426 -84.535C-51.5426 -84.535 -52.5326 -84.735 -53.3126 -85.135C-54.0926 -85.535 -54.7126 -86.045 -55.1726 -86.665C-55.6326 -87.285 -55.9726 -87.945 -56.1926 -88.645C-56.4126 -89.345 -56.5576 -90.005 -56.6276 -90.625C-56.6876 -91.255 -56.7176 -91.765 -56.7176 -92.155V-101.2H-53.0576V-93.4C-53.0576 -92.9 -53.0226 -92.335 -52.9526 -91.705C-52.8826 -91.085 -52.7226 -90.485 -52.4726 -89.905C-52.2126 -89.335 -51.8326 -88.865 -51.3326 -88.495C-50.8226 -88.125 -50.1376 -87.94 -49.2776 -87.94C-48.8176 -87.94 -48.3626 -88.015 -47.9126 -88.165C-47.4626 -88.315 -47.0576 -88.57 -46.6976 -88.93C-46.3276 -89.3 -46.0326 -89.805 -45.8126 -90.445C-45.5926 -91.085 -45.4826 -91.895 -45.4826 -92.875L-43.3376 -91.96C-43.3376 -90.58 -43.6076 -89.33 -44.1476 -88.21C-44.6776 -87.09 -45.4626 -86.195 -46.5026 -85.525C-47.5426 -84.865 -48.8226 -84.535 -50.3426 -84.535ZM-45.0476 -85V-90.025H-45.4826V-101.2H-41.8526V-85H-45.0476ZM-37.6383 -85V-101.2H-34.4433V-97.255L-34.8333 -97.765C-34.6333 -98.305 -34.3683 -98.795 -34.0383 -99.235C-33.6983 -99.685 -33.2933 -100.055 -32.8233 -100.345C-32.4233 -100.615 -31.9833 -100.825 -31.5033 -100.975C-31.0133 -101.135 -30.5133 -101.23 -30.0033 -101.26C-29.4933 -101.3 -28.9983 -101.28 -28.5183 -101.2V-97.825C-28.9983 -97.965 -29.5533 -98.01 -30.1833 -97.96C-30.8033 -97.91 -31.3633 -97.735 -31.8633 -97.435C-32.3633 -97.165 -32.7733 -96.82 -33.0933 -96.4C-33.4033 -95.98 -33.6333 -95.5 -33.7833 -94.96C-33.9333 -94.43 -34.0083 -93.855 -34.0083 -93.235V-85H-37.6383ZM-8.445 -85V-92.8C-8.445 -93.31 -8.48 -93.875 -8.55 -94.495C-8.62 -95.115 -8.785 -95.71 -9.045 -96.28C-9.295 -96.86 -9.675 -97.335 -10.185 -97.705C-10.685 -98.075 -11.365 -98.26 -12.225 -98.26C-12.685 -98.26 -13.14 -98.185 -13.59 -98.035C-14.04 -97.885 -14.45 -97.625 -14.82 -97.255C-15.18 -96.895 -15.47 -96.395 -15.69 -95.755C-15.91 -95.125 -16.02 -94.315 -16.02 -93.325L-18.165 -94.24C-18.165 -95.62 -17.9 -96.87 -17.37 -97.99C-16.83 -99.11 -16.04 -100 -15 -100.66C-13.96 -101.33 -12.68 -101.665 -11.16 -101.665C-9.96 -101.665 -8.97 -101.465 -8.19 -101.065C-7.41 -100.665 -6.79 -100.155 -6.33 -99.535C-5.87 -98.915 -5.53 -98.255 -5.31 -97.555C-5.09 -96.855 -4.95 -96.19 -4.89 -95.56C-4.82 -94.94 -4.785 -94.435 -4.785 -94.045V-85H-8.445ZM-19.68 -85V-106.6H-16.455V-95.23H-16.02V-85H-19.68ZM6.2843 -84.55C4.6643 -84.55 3.2493 -84.915 2.0393 -85.645C0.829297 -86.375 -0.110703 -87.38 -0.780703 -88.66C-1.4407 -89.95 -1.7707 -91.43 -1.7707 -93.1C-1.7707 -94.8 -1.4307 -96.29 -0.750703 -97.57C-0.0707031 -98.85 0.874297 -99.85 2.0843 -100.57C3.2943 -101.29 4.6943 -101.65 6.2843 -101.65C7.9143 -101.65 9.3343 -101.285 10.5443 -100.555C11.7543 -99.825 12.6943 -98.815 13.3643 -97.525C14.0343 -96.245 14.3693 -94.77 14.3693 -93.1C14.3693 -91.42 14.0293 -89.935 13.3493 -88.645C12.6793 -87.365 11.7393 -86.36 10.5293 -85.63C9.3193 -84.91 7.9043 -84.55 6.2843 -84.55ZM6.2843 -87.94C7.7243 -87.94 8.7943 -88.42 9.4943 -89.38C10.1943 -90.34 10.5443 -91.58 10.5443 -93.1C10.5443 -94.67 10.1893 -95.92 9.4793 -96.85C8.7693 -97.79 7.7043 -98.26 6.2843 -98.26C5.3143 -98.26 4.5143 -98.04 3.8843 -97.6C3.2643 -97.17 2.8043 -96.565 2.5043 -95.785C2.2043 -95.015 2.0543 -94.12 2.0543 -93.1C2.0543 -91.53 2.4093 -90.275 3.1193 -89.335C3.8393 -88.405 4.8943 -87.94 6.2843 -87.94ZM17.9742 -85V-107.05H21.5892V-85H17.9742ZM26.3824 -103.66V-106.975H29.9974V-103.66H26.3824ZM26.3824 -85V-101.2H29.9974V-85H26.3824ZM40.9856 -84.55C39.4956 -84.55 38.1956 -84.925 37.0856 -85.675C35.9756 -86.425 35.1156 -87.445 34.5056 -88.735C33.8956 -90.025 33.5906 -91.48 33.5906 -93.1C33.5906 -94.74 33.8956 -96.2 34.5056 -97.48C35.1256 -98.77 36.0006 -99.785 37.1306 -100.525C38.2606 -101.275 39.5906 -101.65 41.1206 -101.65C42.6606 -101.65 43.9506 -101.275 44.9906 -100.525C46.0406 -99.785 46.8356 -98.77 47.3756 -97.48C47.9156 -96.19 48.1856 -94.73 48.1856 -93.1C48.1856 -91.49 47.9156 -90.035 47.3756 -88.735C46.8356 -87.445 46.0306 -86.425 44.9606 -85.675C43.8906 -84.925 42.5656 -84.55 40.9856 -84.55ZM41.5406 -87.79C42.5106 -87.79 43.2906 -88.01 43.8806 -88.45C44.4806 -88.9 44.9156 -89.525 45.1856 -90.325C45.4656 -91.125 45.6056 -92.05 45.6056 -93.1C45.6056 -94.16 45.4656 -95.085 45.1856 -95.875C44.9156 -96.675 44.4906 -97.295 43.9106 -97.735C43.3306 -98.185 42.5806 -98.41 41.6606 -98.41C40.6906 -98.41 39.8906 -98.17 39.2606 -97.69C38.6306 -97.22 38.1656 -96.58 37.8656 -95.77C37.5656 -94.97 37.4156 -94.08 37.4156 -93.1C37.4156 -92.11 37.5606 -91.21 37.8506 -90.4C38.1506 -89.6 38.6056 -88.965 39.2156 -88.495C39.8256 -88.025 40.6006 -87.79 41.5406 -87.79ZM45.6056 -85V-96.37H45.1556V-106.6H48.8006V-85H45.6056ZM57.5363 -84.55C56.3663 -84.55 55.3763 -84.77 54.5663 -85.21C53.7563 -85.66 53.1413 -86.255 52.7213 -86.995C52.3113 -87.735 52.1063 -88.55 52.1063 -89.44C52.1063 -90.22 52.2363 -90.92 52.4963 -91.54C52.7563 -92.17 53.1563 -92.71 53.6963 -93.16C54.2363 -93.62 54.9363 -93.995 55.7963 -94.285C56.4463 -94.495 57.2063 -94.685 58.0763 -94.855C58.9563 -95.025 59.9063 -95.18 60.9263 -95.32C61.9563 -95.47 63.0313 -95.63 64.1513 -95.8L62.8613 -95.065C62.8713 -96.185 62.6213 -97.01 62.1113 -97.54C61.6013 -98.07 60.7413 -98.335 59.5313 -98.335C58.8013 -98.335 58.0963 -98.165 57.4163 -97.825C56.7363 -97.485 56.2613 -96.9 55.9913 -96.07L52.6913 -97.105C53.0913 -98.475 53.8513 -99.575 54.9713 -100.405C56.1013 -101.235 57.6213 -101.65 59.5313 -101.65C60.9713 -101.65 62.2363 -101.415 63.3263 -100.945C64.4263 -100.475 65.2413 -99.705 65.7713 -98.635C66.0613 -98.065 66.2363 -97.48 66.2963 -96.88C66.3563 -96.29 66.3863 -95.645 66.3863 -94.945V-85H63.2213V-88.51L63.7463 -87.94C63.0163 -86.77 62.1613 -85.91 61.1813 -85.36C60.2113 -84.82 58.9963 -84.55 57.5363 -84.55ZM58.2563 -87.43C59.0763 -87.43 59.7763 -87.575 60.3563 -87.865C60.9363 -88.155 61.3963 -88.51 61.7363 -88.93C62.0863 -89.35 62.3213 -89.745 62.4413 -90.115C62.6313 -90.575 62.7363 -91.1 62.7563 -91.69C62.7863 -92.29 62.8013 -92.775 62.8013 -93.145L63.9113 -92.815C62.8213 -92.645 61.8863 -92.495 61.1063 -92.365C60.3263 -92.235 59.6563 -92.11 59.0963 -91.99C58.5363 -91.88 58.0413 -91.755 57.6113 -91.615C57.1913 -91.465 56.8363 -91.29 56.5463 -91.09C56.2563 -90.89 56.0313 -90.66 55.8713 -90.4C55.7213 -90.14 55.6463 -89.835 55.6463 -89.485C55.6463 -89.085 55.7463 -88.73 55.9463 -88.42C56.1463 -88.12 56.4363 -87.88 56.8163 -87.7C57.2063 -87.52 57.6863 -87.43 58.2563 -87.43ZM71.5132 -77.8L74.6332 -86.365L74.6932 -83.845L67.6282 -101.2H71.3932L76.4032 -88.36H75.4432L80.3182 -101.2H83.9332L74.9032 -77.8H71.5132ZM-84.645 -46.55C-86.645 -46.55 -88.27 -47 -89.52 -47.9C-90.77 -48.8 -91.53 -50.065 -91.8 -51.695L-88.11 -52.265C-87.92 -51.465 -87.5 -50.835 -86.85 -50.375C-86.2 -49.915 -85.38 -49.685 -84.39 -49.685C-83.52 -49.685 -82.85 -49.855 -82.38 -50.195C-81.9 -50.545 -81.66 -51.02 -81.66 -51.62C-81.66 -51.99 -81.75 -52.285 -81.93 -52.505C-82.1 -52.735 -82.48 -52.955 -83.07 -53.165C-83.66 -53.375 -84.565 -53.64 -85.785 -53.96C-87.145 -54.32 -88.225 -54.705 -89.025 -55.115C-89.825 -55.535 -90.4 -56.03 -90.75 -56.6C-91.1 -57.17 -91.275 -57.86 -91.275 -58.67C-91.275 -59.68 -91.01 -60.56 -90.48 -61.31C-89.95 -62.06 -89.21 -62.635 -88.26 -63.035C-87.31 -63.445 -86.19 -63.65 -84.9 -63.65C-83.64 -63.65 -82.525 -63.455 -81.555 -63.065C-80.575 -62.675 -79.785 -62.12 -79.185 -61.4C-78.585 -60.68 -78.215 -59.835 -78.075 -58.865L-81.765 -58.205C-81.855 -58.895 -82.17 -59.44 -82.71 -59.84C-83.24 -60.24 -83.95 -60.465 -84.84 -60.515C-85.69 -60.565 -86.375 -60.435 -86.895 -60.125C-87.415 -59.825 -87.675 -59.4 -87.675 -58.85C-87.675 -58.54 -87.57 -58.275 -87.36 -58.055C-87.15 -57.835 -86.73 -57.615 -86.1 -57.395C-85.46 -57.175 -84.51 -56.905 -83.25 -56.585C-81.96 -56.255 -80.93 -55.875 -80.16 -55.445C-79.38 -55.025 -78.82 -54.52 -78.48 -53.93C-78.13 -53.34 -77.955 -52.625 -77.955 -51.785C-77.955 -50.155 -78.55 -48.875 -79.74 -47.945C-80.92 -47.015 -82.555 -46.55 -84.645 -46.55ZM-63.4645 -47V-54.8C-63.4645 -55.31 -63.4995 -55.875 -63.5695 -56.495C-63.6395 -57.115 -63.8045 -57.71 -64.0645 -58.28C-64.3145 -58.86 -64.6945 -59.335 -65.2045 -59.705C-65.7045 -60.075 -66.3845 -60.26 -67.2445 -60.26C-67.7045 -60.26 -68.1595 -60.185 -68.6095 -60.035C-69.0595 -59.885 -69.4695 -59.625 -69.8395 -59.255C-70.1995 -58.895 -70.4895 -58.395 -70.7095 -57.755C-70.9295 -57.125 -71.0395 -56.315 -71.0395 -55.325L-73.1845 -56.24C-73.1845 -57.62 -72.9195 -58.87 -72.3895 -59.99C-71.8495 -61.11 -71.0595 -62 -70.0195 -62.66C-68.9795 -63.33 -67.6995 -63.665 -66.1795 -63.665C-64.9795 -63.665 -63.9895 -63.465 -63.2095 -63.065C-62.4295 -62.665 -61.8095 -62.155 -61.3495 -61.535C-60.8895 -60.915 -60.5495 -60.255 -60.3295 -59.555C-60.1095 -58.855 -59.9695 -58.19 -59.9095 -57.56C-59.8395 -56.94 -59.8045 -56.435 -59.8045 -56.045V-47H-63.4645ZM-74.6995 -47V-68.6H-71.4745V-57.23H-71.0395V-47H-74.6995ZM-48.7352 -46.55C-50.3552 -46.55 -51.7702 -46.915 -52.9802 -47.645C-54.1902 -48.375 -55.1302 -49.38 -55.8002 -50.66C-56.4602 -51.95 -56.7902 -53.43 -56.7902 -55.1C-56.7902 -56.8 -56.4502 -58.29 -55.7702 -59.57C-55.0902 -60.85 -54.1452 -61.85 -52.9352 -62.57C-51.7252 -63.29 -50.3252 -63.65 -48.7352 -63.65C-47.1052 -63.65 -45.6852 -63.285 -44.4752 -62.555C-43.2652 -61.825 -42.3252 -60.815 -41.6552 -59.525C-40.9852 -58.245 -40.6502 -56.77 -40.6502 -55.1C-40.6502 -53.42 -40.9902 -51.935 -41.6702 -50.645C-42.3402 -49.365 -43.2802 -48.36 -44.4902 -47.63C-45.7002 -46.91 -47.1152 -46.55 -48.7352 -46.55ZM-48.7352 -49.94C-47.2952 -49.94 -46.2252 -50.42 -45.5252 -51.38C-44.8252 -52.34 -44.4752 -53.58 -44.4752 -55.1C-44.4752 -56.67 -44.8302 -57.92 -45.5402 -58.85C-46.2502 -59.79 -47.3152 -60.26 -48.7352 -60.26C-49.7052 -60.26 -50.5052 -60.04 -51.1352 -59.6C-51.7552 -59.17 -52.2152 -58.565 -52.5152 -57.785C-52.8152 -57.015 -52.9652 -56.12 -52.9652 -55.1C-52.9652 -53.53 -52.6102 -52.275 -51.9002 -51.335C-51.1802 -50.405 -50.1252 -49.94 -48.7352 -49.94ZM-29.5603 -46.55C-31.1403 -46.55 -32.4653 -46.925 -33.5353 -47.675C-34.6053 -48.425 -35.4103 -49.445 -35.9503 -50.735C-36.4903 -52.035 -36.7603 -53.49 -36.7603 -55.1C-36.7603 -56.73 -36.4903 -58.19 -35.9503 -59.48C-35.4103 -60.77 -34.6203 -61.785 -33.5803 -62.525C-32.5303 -63.275 -31.2353 -63.65 -29.6953 -63.65C-28.1653 -63.65 -26.8403 -63.275 -25.7203 -62.525C-24.5903 -61.785 -23.7153 -60.77 -23.0953 -59.48C-22.4753 -58.2 -22.1653 -56.74 -22.1653 -55.1C-22.1653 -53.48 -22.4703 -52.025 -23.0803 -50.735C-23.6903 -49.445 -24.5503 -48.425 -25.6603 -47.675C-26.7703 -46.925 -28.0703 -46.55 -29.5603 -46.55ZM-37.3753 -39.8V-63.2H-34.1803V-51.83H-33.7303V-39.8H-37.3753ZM-30.1153 -49.79C-29.1753 -49.79 -28.4003 -50.025 -27.7903 -50.495C-27.1803 -50.965 -26.7303 -51.6 -26.4403 -52.4C-26.1403 -53.21 -25.9903 -54.11 -25.9903 -55.1C-25.9903 -56.08 -26.1403 -56.97 -26.4403 -57.77C-26.7403 -58.58 -27.2053 -59.22 -27.8353 -59.69C-28.4653 -60.17 -29.2653 -60.41 -30.2353 -60.41C-31.1553 -60.41 -31.9053 -60.185 -32.4853 -59.735C-33.0653 -59.295 -33.4953 -58.675 -33.7753 -57.875C-34.0453 -57.085 -34.1803 -56.16 -34.1803 -55.1C-34.1803 -54.05 -34.0453 -53.125 -33.7753 -52.325C-33.4953 -51.525 -33.0603 -50.9 -32.4703 -50.45C-31.8703 -50.01 -31.0853 -49.79 -30.1153 -49.79ZM-11.074 -46.55C-12.654 -46.55 -13.979 -46.925 -15.049 -47.675C-16.119 -48.425 -16.924 -49.445 -17.464 -50.735C-18.004 -52.035 -18.274 -53.49 -18.274 -55.1C-18.274 -56.73 -18.004 -58.19 -17.464 -59.48C-16.924 -60.77 -16.134 -61.785 -15.094 -62.525C-14.044 -63.275 -12.749 -63.65 -11.209 -63.65C-9.67898 -63.65 -8.35398 -63.275 -7.23398 -62.525C-6.10398 -61.785 -5.22898 -60.77 -4.60898 -59.48C-3.98898 -58.2 -3.67898 -56.74 -3.67898 -55.1C-3.67898 -53.48 -3.98398 -52.025 -4.59398 -50.735C-5.20398 -49.445 -6.06398 -48.425 -7.17398 -47.675C-8.28398 -46.925 -9.58398 -46.55 -11.074 -46.55ZM-18.889 -39.8V-63.2H-15.694V-51.83H-15.244V-39.8H-18.889ZM-11.629 -49.79C-10.689 -49.79 -9.91398 -50.025 -9.30398 -50.495C-8.69398 -50.965 -8.24398 -51.6 -7.95398 -52.4C-7.65398 -53.21 -7.50398 -54.11 -7.50398 -55.1C-7.50398 -56.08 -7.65398 -56.97 -7.95398 -57.77C-8.25398 -58.58 -8.71898 -59.22 -9.34898 -59.69C-9.97898 -60.17 -10.779 -60.41 -11.749 -60.41C-12.669 -60.41 -13.419 -60.185 -13.999 -59.735C-14.579 -59.295 -15.009 -58.675 -15.289 -57.875C-15.559 -57.085 -15.694 -56.16 -15.694 -55.1C-15.694 -54.05 -15.559 -53.125 -15.289 -52.325C-15.009 -51.525 -14.574 -50.9 -13.984 -50.45C-13.384 -50.01 -12.599 -49.79 -11.629 -49.79ZM-0.0726561 -65.66V-68.975H3.54234V-65.66H-0.0726561ZM-0.0726561 -47V-63.2H3.54234V-47H-0.0726561ZM19.2405 -47V-54.8C19.2405 -55.31 19.2055 -55.875 19.1355 -56.495C19.0655 -57.115 18.9005 -57.71 18.6405 -58.28C18.3905 -58.86 18.0105 -59.335 17.5005 -59.705C17.0005 -60.075 16.3205 -60.26 15.4605 -60.26C15.0005 -60.26 14.5455 -60.185 14.0955 -60.035C13.6455 -59.885 13.2355 -59.625 12.8655 -59.255C12.5055 -58.895 12.2155 -58.395 11.9955 -57.755C11.7755 -57.125 11.6655 -56.315 11.6655 -55.325L9.52055 -56.24C9.52055 -57.62 9.78555 -58.87 10.3155 -59.99C10.8555 -61.11 11.6455 -62 12.6855 -62.66C13.7255 -63.33 15.0055 -63.665 16.5255 -63.665C17.7255 -63.665 18.7155 -63.465 19.4955 -63.065C20.2755 -62.665 20.8955 -62.155 21.3555 -61.535C21.8155 -60.915 22.1555 -60.255 22.3755 -59.555C22.5955 -58.855 22.7355 -58.19 22.7955 -57.56C22.8655 -56.94 22.9005 -56.435 22.9005 -56.045V-47H19.2405ZM8.00555 -47V-63.2H11.2305V-58.175H11.6655V-47H8.00555ZM33.6248 -39.35C32.7248 -39.35 31.8598 -39.49 31.0298 -39.77C30.2098 -40.05 29.4698 -40.455 28.8098 -40.985C28.1498 -41.505 27.6098 -42.135 27.1898 -42.875L30.5198 -44.525C30.8298 -43.935 31.2648 -43.5 31.8248 -43.22C32.3948 -42.93 32.9998 -42.785 33.6398 -42.785C34.3898 -42.785 35.0598 -42.92 35.6498 -43.19C36.2398 -43.45 36.6948 -43.84 37.0148 -44.36C37.3448 -44.87 37.4998 -45.51 37.4798 -46.28V-50.885H37.9298V-63.2H41.0948V-46.22C41.0948 -45.81 41.0748 -45.42 41.0348 -45.05C41.0048 -44.67 40.9498 -44.3 40.8698 -43.94C40.6298 -42.89 40.1698 -42.03 39.4898 -41.36C38.8098 -40.68 37.9648 -40.175 36.9548 -39.845C35.9548 -39.515 34.8448 -39.35 33.6248 -39.35ZM33.3098 -46.55C31.8198 -46.55 30.5198 -46.925 29.4098 -47.675C28.2998 -48.425 27.4398 -49.445 26.8298 -50.735C26.2198 -52.025 25.9148 -53.48 25.9148 -55.1C25.9148 -56.74 26.2198 -58.2 26.8298 -59.48C27.4498 -60.77 28.3248 -61.785 29.4548 -62.525C30.5848 -63.275 31.9148 -63.65 33.4448 -63.65C34.9848 -63.65 36.2748 -63.275 37.3148 -62.525C38.3648 -61.785 39.1598 -60.77 39.6998 -59.48C40.2398 -58.19 40.5098 -56.73 40.5098 -55.1C40.5098 -53.49 40.2398 -52.035 39.6998 -50.735C39.1598 -49.445 38.3548 -48.425 37.2848 -47.675C36.2148 -46.925 34.8898 -46.55 33.3098 -46.55ZM33.8648 -49.79C34.8348 -49.79 35.6148 -50.01 36.2048 -50.45C36.8048 -50.9 37.2398 -51.525 37.5098 -52.325C37.7898 -53.125 37.9298 -54.05 37.9298 -55.1C37.9298 -56.16 37.7898 -57.085 37.5098 -57.875C37.2398 -58.675 36.8148 -59.295 36.2348 -59.735C35.6548 -60.185 34.9048 -60.41 33.9848 -60.41C33.0148 -60.41 32.2148 -60.17 31.5848 -59.69C30.9548 -59.22 30.4898 -58.58 30.1898 -57.77C29.8898 -56.97 29.7398 -56.08 29.7398 -55.1C29.7398 -54.11 29.8848 -53.21 30.1748 -52.4C30.4748 -51.6 30.9298 -50.965 31.5398 -50.495C32.1498 -50.025 32.9248 -49.79 33.8648 -49.79ZM-84.405 -8.55C-85.895 -8.55 -87.195 -8.925 -88.305 -9.675C-89.415 -10.425 -90.275 -11.445 -90.885 -12.735C-91.495 -14.025 -91.8 -15.48 -91.8 -17.1C-91.8 -18.74 -91.495 -20.2 -90.885 -21.48C-90.265 -22.77 -89.39 -23.785 -88.26 -24.525C-87.13 -25.275 -85.8 -25.65 -84.27 -25.65C-82.73 -25.65 -81.44 -25.275 -80.4 -24.525C-79.35 -23.785 -78.555 -22.77 -78.015 -21.48C-77.475 -20.19 -77.205 -18.73 -77.205 -17.1C-77.205 -15.49 -77.475 -14.035 -78.015 -12.735C-78.555 -11.445 -79.36 -10.425 -80.43 -9.675C-81.5 -8.925 -82.825 -8.55 -84.405 -8.55ZM-83.85 -11.79C-82.88 -11.79 -82.1 -12.01 -81.51 -12.45C-80.91 -12.9 -80.475 -13.525 -80.205 -14.325C-79.925 -15.125 -79.785 -16.05 -79.785 -17.1C-79.785 -18.16 -79.925 -19.085 -80.205 -19.875C-80.475 -20.675 -80.9 -21.295 -81.48 -21.735C-82.06 -22.185 -82.81 -22.41 -83.73 -22.41C-84.7 -22.41 -85.5 -22.17 -86.13 -21.69C-86.76 -21.22 -87.225 -20.58 -87.525 -19.77C-87.825 -18.97 -87.975 -18.08 -87.975 -17.1C-87.975 -16.11 -87.83 -15.21 -87.54 -14.4C-87.24 -13.6 -86.785 -12.965 -86.175 -12.495C-85.565 -12.025 -84.79 -11.79 -83.85 -11.79ZM-79.785 -9V-20.37H-80.235V-30.6H-76.59V-9H-79.785ZM-65.0194 -8.55C-66.6594 -8.55 -68.0994 -8.905 -69.3394 -9.615C-70.5794 -10.325 -71.5494 -11.31 -72.2494 -12.57C-72.9394 -13.83 -73.2844 -15.28 -73.2844 -16.92C-73.2844 -18.69 -72.9444 -20.225 -72.2644 -21.525C-71.5844 -22.835 -70.6394 -23.85 -69.4294 -24.57C-68.2194 -25.29 -66.8194 -25.65 -65.2294 -25.65C-63.5494 -25.65 -62.1244 -25.255 -60.9544 -24.465C-59.7744 -23.685 -58.8994 -22.58 -58.3294 -21.15C-57.7594 -19.72 -57.5444 -18.035 -57.6844 -16.095H-61.2694V-17.415C-61.2794 -19.175 -61.5894 -20.46 -62.1994 -21.27C-62.8094 -22.08 -63.7694 -22.485 -65.0794 -22.485C-66.5594 -22.485 -67.6594 -22.025 -68.3794 -21.105C-69.0994 -20.195 -69.4594 -18.86 -69.4594 -17.1C-69.4594 -15.46 -69.0994 -14.19 -68.3794 -13.29C-67.6594 -12.39 -66.6094 -11.94 -65.2294 -11.94C-64.3394 -11.94 -63.5744 -12.135 -62.9344 -12.525C-62.2844 -12.925 -61.7844 -13.5 -61.4344 -14.25L-57.8644 -13.17C-58.4844 -11.71 -59.4444 -10.575 -60.7444 -9.765C-62.0344 -8.955 -63.4594 -8.55 -65.0194 -8.55ZM-70.5994 -16.095V-18.825H-59.4544V-16.095H-70.5994ZM-54.0375 -9V-31.05H-50.4225V-9H-54.0375ZM-45.6293 -27.66V-30.975H-42.0143V-27.66H-45.6293ZM-45.6293 -9V-25.2H-42.0143V-9H-45.6293ZM-33.1411 -9L-39.0211 -25.2H-35.4061L-31.3261 -13.455L-27.2611 -25.2H-23.6311L-29.5111 -9H-33.1411ZM-14.16 -8.55C-15.8 -8.55 -17.24 -8.905 -18.48 -9.615C-19.72 -10.325 -20.69 -11.31 -21.39 -12.57C-22.08 -13.83 -22.425 -15.28 -22.425 -16.92C-22.425 -18.69 -22.085 -20.225 -21.405 -21.525C-20.725 -22.835 -19.78 -23.85 -18.57 -24.57C-17.36 -25.29 -15.96 -25.65 -14.37 -25.65C-12.69 -25.65 -11.265 -25.255 -10.095 -24.465C-8.915 -23.685 -8.04 -22.58 -7.47 -21.15C-6.9 -19.72 -6.685 -18.035 -6.825 -16.095H-10.41V-17.415C-10.42 -19.175 -10.73 -20.46 -11.34 -21.27C-11.95 -22.08 -12.91 -22.485 -14.22 -22.485C-15.7 -22.485 -16.8 -22.025 -17.52 -21.105C-18.24 -20.195 -18.6 -18.86 -18.6 -17.1C-18.6 -15.46 -18.24 -14.19 -17.52 -13.29C-16.8 -12.39 -15.75 -11.94 -14.37 -11.94C-13.48 -11.94 -12.715 -12.135 -12.075 -12.525C-11.425 -12.925 -10.925 -13.5 -10.575 -14.25L-7.005 -13.17C-7.625 -11.71 -8.585 -10.575 -9.885 -9.765C-11.175 -8.955 -12.6 -8.55 -14.16 -8.55ZM-19.74 -16.095V-18.825H-8.595V-16.095H-19.74ZM-3.47812 -9V-25.2H-0.283125V-21.255L-0.673125 -21.765C-0.473125 -22.305 -0.208125 -22.795 0.121875 -23.235C0.461875 -23.685 0.866875 -24.055 1.33688 -24.345C1.73688 -24.615 2.17688 -24.825 2.65688 -24.975C3.14688 -25.135 3.64688 -25.23 4.15688 -25.26C4.66688 -25.3 5.16188 -25.28 5.64188 -25.2V-21.825C5.16188 -21.965 4.60688 -22.01 3.97688 -21.96C3.35688 -21.91 2.79688 -21.735 2.29688 -21.435C1.79688 -21.165 1.38688 -20.82 1.06688 -20.4C0.756875 -19.98 0.526875 -19.5 0.376875 -18.96C0.226875 -18.43 0.151875 -17.855 0.151875 -17.235V-9H-3.47812ZM15.5763 -8.55C13.9363 -8.55 12.4963 -8.905 11.2563 -9.615C10.0163 -10.325 9.04633 -11.31 8.34633 -12.57C7.65633 -13.83 7.31133 -15.28 7.31133 -16.92C7.31133 -18.69 7.65133 -20.225 8.33133 -21.525C9.01133 -22.835 9.95633 -23.85 11.1663 -24.57C12.3763 -25.29 13.7763 -25.65 15.3663 -25.65C17.0463 -25.65 18.4713 -25.255 19.6413 -24.465C20.8213 -23.685 21.6963 -22.58 22.2663 -21.15C22.8363 -19.72 23.0513 -18.035 22.9113 -16.095H19.3263V-17.415C19.3163 -19.175 19.0063 -20.46 18.3963 -21.27C17.7863 -22.08 16.8263 -22.485 15.5163 -22.485C14.0363 -22.485 12.9363 -22.025 12.2163 -21.105C11.4963 -20.195 11.1363 -18.86 11.1363 -17.1C11.1363 -15.46 11.4963 -14.19 12.2163 -13.29C12.9363 -12.39 13.9863 -11.94 15.3663 -11.94C16.2563 -11.94 17.0213 -12.135 17.6613 -12.525C18.3113 -12.925 18.8113 -13.5 19.1613 -14.25L22.7313 -13.17C22.1113 -11.71 21.1513 -10.575 19.8513 -9.765C18.5613 -8.955 17.1363 -8.55 15.5763 -8.55ZM9.99633 -16.095V-18.825H21.1413V-16.095H9.99633ZM32.7532 -8.55C31.2632 -8.55 29.9632 -8.925 28.8532 -9.675C27.7432 -10.425 26.8832 -11.445 26.2732 -12.735C25.6632 -14.025 25.3582 -15.48 25.3582 -17.1C25.3582 -18.74 25.6632 -20.2 26.2732 -21.48C26.8932 -22.77 27.7682 -23.785 28.8982 -24.525C30.0282 -25.275 31.3582 -25.65 32.8882 -25.65C34.4282 -25.65 35.7182 -25.275 36.7582 -24.525C37.8082 -23.785 38.6032 -22.77 39.1432 -21.48C39.6832 -20.19 39.9532 -18.73 39.9532 -17.1C39.9532 -15.49 39.6832 -14.035 39.1432 -12.735C38.6032 -11.445 37.7982 -10.425 36.7282 -9.675C35.6582 -8.925 34.3332 -8.55 32.7532 -8.55ZM33.3082 -11.79C34.2782 -11.79 35.0582 -12.01 35.6482 -12.45C36.2482 -12.9 36.6832 -13.525 36.9532 -14.325C37.2332 -15.125 37.3732 -16.05 37.3732 -17.1C37.3732 -18.16 37.2332 -19.085 36.9532 -19.875C36.6832 -20.675 36.2582 -21.295 35.6782 -21.735C35.0982 -22.185 34.3482 -22.41 33.4282 -22.41C32.4582 -22.41 31.6582 -22.17 31.0282 -21.69C30.3982 -21.22 29.9332 -20.58 29.6332 -19.77C29.3332 -18.97 29.1832 -18.08 29.1832 -17.1C29.1832 -16.11 29.3282 -15.21 29.6182 -14.4C29.9182 -13.6 30.3732 -12.965 30.9832 -12.495C31.5932 -12.025 32.3682 -11.79 33.3082 -11.79ZM37.3732 -9V-20.37H36.9232V-30.6H40.5682V-9H37.3732ZM60.2747 -9C59.2047 -8.8 58.1547 -8.715 57.1247 -8.745C56.1047 -8.765 55.1897 -8.95 54.3797 -9.3C53.5697 -9.66 52.9547 -10.225 52.5347 -10.995C52.1647 -11.695 51.9697 -12.41 51.9497 -13.14C51.9297 -13.87 51.9197 -14.695 51.9197 -15.615V-29.7H55.5197V-15.825C55.5197 -15.175 55.5247 -14.605 55.5347 -14.115C55.5547 -13.625 55.6597 -13.225 55.8497 -12.915C56.2097 -12.315 56.7847 -11.98 57.5747 -11.91C58.3647 -11.84 59.2647 -11.88 60.2747 -12.03V-9ZM48.9797 -22.365V-25.2H60.2747V-22.365H48.9797ZM70.0929 -8.55C68.4729 -8.55 67.0579 -8.915 65.8479 -9.645C64.6379 -10.375 63.6979 -11.38 63.0279 -12.66C62.3679 -13.95 62.0379 -15.43 62.0379 -17.1C62.0379 -18.8 62.3779 -20.29 63.0579 -21.57C63.7379 -22.85 64.6829 -23.85 65.8929 -24.57C67.1029 -25.29 68.5029 -25.65 70.0929 -25.65C71.7229 -25.65 73.1429 -25.285 74.3529 -24.555C75.5629 -23.825 76.5029 -22.815 77.1729 -21.525C77.8429 -20.245 78.1779 -18.77 78.1779 -17.1C78.1779 -15.42 77.8379 -13.935 77.1579 -12.645C76.4879 -11.365 75.5479 -10.36 74.3379 -9.63C73.1279 -8.91 71.7129 -8.55 70.0929 -8.55ZM70.0929 -11.94C71.5329 -11.94 72.6029 -12.42 73.3029 -13.38C74.0029 -14.34 74.3529 -15.58 74.3529 -17.1C74.3529 -18.67 73.9979 -19.92 73.2879 -20.85C72.5779 -21.79 71.5129 -22.26 70.0929 -22.26C69.1229 -22.26 68.3229 -22.04 67.6929 -21.6C67.0729 -21.17 66.6129 -20.565 66.3129 -19.785C66.0129 -19.015 65.8629 -18.12 65.8629 -17.1C65.8629 -15.53 66.2179 -14.275 66.9279 -13.335C67.6479 -12.405 68.7029 -11.94 70.0929 -11.94ZM95.4837 -8.55C93.9037 -8.55 92.4787 -8.825 91.2087 -9.375C89.9487 -9.925 88.9087 -10.71 88.0887 -11.73C87.2787 -12.76 86.7637 -13.98 86.5437 -15.39L90.2937 -15.96C90.6137 -14.68 91.2687 -13.69 92.2587 -12.99C93.2587 -12.29 94.4087 -11.94 95.7087 -11.94C96.4787 -11.94 97.2037 -12.06 97.8837 -12.3C98.5637 -12.54 99.1137 -12.89 99.5337 -13.35C99.9637 -13.81 100.179 -14.375 100.179 -15.045C100.179 -15.345 100.129 -15.62 100.029 -15.87C99.9287 -16.13 99.7787 -16.36 99.5787 -16.56C99.3887 -16.76 99.1387 -16.94 98.8287 -17.1C98.5287 -17.27 98.1787 -17.415 97.7787 -17.535L92.1987 -19.185C91.7187 -19.325 91.1987 -19.51 90.6387 -19.74C90.0887 -19.98 89.5637 -20.305 89.0637 -20.715C88.5737 -21.135 88.1687 -21.665 87.8487 -22.305C87.5387 -22.955 87.3837 -23.755 87.3837 -24.705C87.3837 -26.095 87.7337 -27.26 88.4337 -28.2C89.1437 -29.15 90.0937 -29.86 91.2837 -30.33C92.4837 -30.8 93.8137 -31.03 95.2737 -31.02C96.7537 -31.01 98.0737 -30.755 99.2337 -30.255C100.394 -29.765 101.364 -29.05 102.144 -28.11C102.924 -27.17 103.474 -26.035 103.794 -24.705L99.9087 -24.03C99.7487 -24.79 99.4387 -25.435 98.9787 -25.965C98.5287 -26.505 97.9737 -26.915 97.3137 -27.195C96.6637 -27.475 95.9687 -27.625 95.2287 -27.645C94.5087 -27.655 93.8387 -27.545 93.2187 -27.315C92.6087 -27.095 92.1137 -26.775 91.7337 -26.355C91.3637 -25.935 91.1787 -25.445 91.1787 -24.885C91.1787 -24.355 91.3387 -23.92 91.6587 -23.58C91.9787 -23.25 92.3737 -22.985 92.8437 -22.785C93.3237 -22.595 93.8087 -22.435 94.2987 -22.305L98.1687 -21.225C98.6987 -21.085 99.2937 -20.895 99.9537 -20.655C100.614 -20.415 101.249 -20.08 101.859 -19.65C102.469 -19.22 102.969 -18.655 103.359 -17.955C103.759 -17.255 103.959 -16.365 103.959 -15.285C103.959 -14.165 103.724 -13.18 103.254 -12.33C102.794 -11.49 102.169 -10.79 101.379 -10.23C100.589 -9.67 99.6837 -9.25 98.6637 -8.97C97.6537 -8.69 96.5937 -8.55 95.4837 -8.55ZM114.24 -8.55C112.57 -8.55 111.145 -8.92 109.965 -9.66C108.785 -10.41 107.88 -11.43 107.25 -12.72C106.63 -14.01 106.315 -15.47 106.305 -17.1C106.315 -18.76 106.64 -20.23 107.28 -21.51C107.93 -22.8 108.85 -23.81 110.04 -24.54C111.23 -25.28 112.645 -25.65 114.285 -25.65C116.125 -25.65 117.68 -25.185 118.95 -24.255C120.23 -23.335 121.065 -22.075 121.455 -20.475L117.855 -19.5C117.575 -20.37 117.11 -21.045 116.46 -21.525C115.81 -22.015 115.07 -22.26 114.24 -22.26C113.3 -22.26 112.525 -22.035 111.915 -21.585C111.305 -21.145 110.855 -20.535 110.565 -19.755C110.275 -18.975 110.13 -18.09 110.13 -17.1C110.13 -15.56 110.475 -14.315 111.165 -13.365C111.855 -12.415 112.88 -11.94 114.24 -11.94C115.2 -11.94 115.955 -12.16 116.505 -12.6C117.065 -13.04 117.485 -13.675 117.765 -14.505L121.455 -13.68C120.955 -12.03 120.08 -10.76 118.83 -9.87C117.58 -8.99 116.05 -8.55 114.24 -8.55ZM124.461 -9V-25.2H127.656V-21.255L127.266 -21.765C127.466 -22.305 127.731 -22.795 128.061 -23.235C128.401 -23.685 128.806 -24.055 129.276 -24.345C129.676 -24.615 130.116 -24.825 130.596 -24.975C131.086 -25.135 131.586 -25.23 132.096 -25.26C132.606 -25.3 133.101 -25.28 133.581 -25.2V-21.825C133.101 -21.965 132.546 -22.01 131.916 -21.96C131.296 -21.91 130.736 -21.735 130.236 -21.435C129.736 -21.165 129.326 -20.82 129.006 -20.4C128.696 -19.98 128.466 -19.5 128.316 -18.96C128.166 -18.43 128.091 -17.855 128.091 -17.235V-9H124.461ZM143.516 -8.55C141.876 -8.55 140.436 -8.905 139.196 -9.615C137.956 -10.325 136.986 -11.31 136.286 -12.57C135.596 -13.83 135.251 -15.28 135.251 -16.92C135.251 -18.69 135.591 -20.225 136.271 -21.525C136.951 -22.835 137.896 -23.85 139.106 -24.57C140.316 -25.29 141.716 -25.65 143.306 -25.65C144.986 -25.65 146.411 -25.255 147.581 -24.465C148.761 -23.685 149.636 -22.58 150.206 -21.15C150.776 -19.72 150.991 -18.035 150.851 -16.095H147.266V-17.415C147.256 -19.175 146.946 -20.46 146.336 -21.27C145.726 -22.08 144.766 -22.485 143.456 -22.485C141.976 -22.485 140.876 -22.025 140.156 -21.105C139.436 -20.195 139.076 -18.86 139.076 -17.1C139.076 -15.46 139.436 -14.19 140.156 -13.29C140.876 -12.39 141.926 -11.94 143.306 -11.94C144.196 -11.94 144.961 -12.135 145.601 -12.525C146.251 -12.925 146.751 -13.5 147.101 -14.25L150.671 -13.17C150.051 -11.71 149.091 -10.575 147.791 -9.765C146.501 -8.955 145.076 -8.55 143.516 -8.55ZM137.936 -16.095V-18.825H149.081V-16.095H137.936ZM161.563 -8.55C159.923 -8.55 158.483 -8.905 157.243 -9.615C156.003 -10.325 155.033 -11.31 154.333 -12.57C153.643 -13.83 153.298 -15.28 153.298 -16.92C153.298 -18.69 153.638 -20.225 154.318 -21.525C154.998 -22.835 155.943 -23.85 157.153 -24.57C158.363 -25.29 159.763 -25.65 161.353 -25.65C163.033 -25.65 164.458 -25.255 165.628 -24.465C166.808 -23.685 167.683 -22.58 168.253 -21.15C168.823 -19.72 169.038 -18.035 168.898 -16.095H165.313V-17.415C165.303 -19.175 164.993 -20.46 164.383 -21.27C163.773 -22.08 162.813 -22.485 161.503 -22.485C160.023 -22.485 158.923 -22.025 158.203 -21.105C157.483 -20.195 157.123 -18.86 157.123 -17.1C157.123 -15.46 157.483 -14.19 158.203 -13.29C158.923 -12.39 159.973 -11.94 161.353 -11.94C162.243 -11.94 163.008 -12.135 163.648 -12.525C164.298 -12.925 164.798 -13.5 165.148 -14.25L168.718 -13.17C168.098 -11.71 167.138 -10.575 165.838 -9.765C164.548 -8.955 163.123 -8.55 161.563 -8.55ZM155.983 -16.095V-18.825H167.128V-16.095H155.983ZM183.01 -9V-16.8C183.01 -17.31 182.975 -17.875 182.905 -18.495C182.835 -19.115 182.67 -19.71 182.41 -20.28C182.16 -20.86 181.78 -21.335 181.27 -21.705C180.77 -22.075 180.09 -22.26 179.23 -22.26C178.77 -22.26 178.315 -22.185 177.865 -22.035C177.415 -21.885 177.005 -21.625 176.635 -21.255C176.275 -20.895 175.985 -20.395 175.765 -19.755C175.545 -19.125 175.435 -18.315 175.435 -17.325L173.29 -18.24C173.29 -19.62 173.555 -20.87 174.085 -21.99C174.625 -23.11 175.415 -24 176.455 -24.66C177.495 -25.33 178.775 -25.665 180.295 -25.665C181.495 -25.665 182.485 -25.465 183.265 -25.065C184.045 -24.665 184.665 -24.155 185.125 -23.535C185.585 -22.915 185.925 -22.255 186.145 -21.555C186.365 -20.855 186.505 -20.19 186.565 -19.56C186.635 -18.94 186.67 -18.435 186.67 -18.045V-9H183.01ZM171.775 -9V-25.2H175V-20.175H175.435V-9H171.775ZM-83.745 29.45C-85.365 29.45 -86.78 29.085 -87.99 28.355C-89.2 27.625 -90.14 26.62 -90.81 25.34C-91.47 24.05 -91.8 22.57 -91.8 20.9C-91.8 19.2 -91.46 17.71 -90.78 16.43C-90.1 15.15 -89.155 14.15 -87.945 13.43C-86.735 12.71 -85.335 12.35 -83.745 12.35C-82.115 12.35 -80.695 12.715 -79.485 13.445C-78.275 14.175 -77.335 15.185 -76.665 16.475C-75.995 17.755 -75.66 19.23 -75.66 20.9C-75.66 22.58 -76 24.065 -76.68 25.355C-77.35 26.635 -78.29 27.64 -79.5 28.37C-80.71 29.09 -82.125 29.45 -83.745 29.45ZM-83.745 26.06C-82.305 26.06 -81.235 25.58 -80.535 24.62C-79.835 23.66 -79.485 22.42 -79.485 20.9C-79.485 19.33 -79.84 18.08 -80.55 17.15C-81.26 16.21 -82.325 15.74 -83.745 15.74C-84.715 15.74 -85.515 15.96 -86.145 16.4C-86.765 16.83 -87.225 17.435 -87.525 18.215C-87.825 18.985 -87.975 19.88 -87.975 20.9C-87.975 22.47 -87.62 23.725 -86.91 24.665C-86.19 25.595 -85.135 26.06 -83.745 26.06ZM-61.1501 29V21.2C-61.1501 20.69 -61.1851 20.125 -61.2551 19.505C-61.3251 18.885 -61.4901 18.29 -61.7501 17.72C-62.0001 17.14 -62.3801 16.665 -62.8901 16.295C-63.3901 15.925 -64.0701 15.74 -64.9301 15.74C-65.3901 15.74 -65.8451 15.815 -66.2951 15.965C-66.7451 16.115 -67.1551 16.375 -67.5251 16.745C-67.8851 17.105 -68.1751 17.605 -68.3951 18.245C-68.6151 18.875 -68.7251 19.685 -68.7251 20.675L-70.8701 19.76C-70.8701 18.38 -70.6051 17.13 -70.0751 16.01C-69.5351 14.89 -68.7451 14 -67.7051 13.34C-66.6651 12.67 -65.3851 12.335 -63.8651 12.335C-62.6651 12.335 -61.6751 12.535 -60.8951 12.935C-60.1151 13.335 -59.4951 13.845 -59.0351 14.465C-58.5751 15.085 -58.2351 15.745 -58.0151 16.445C-57.7951 17.145 -57.6551 17.81 -57.5951 18.44C-57.5251 19.06 -57.4901 19.565 -57.4901 19.955V29H-61.1501ZM-72.3851 29V12.8H-69.1601V17.825H-68.7251V29H-72.3851ZM-46.4745 29.45C-48.1145 29.45 -49.5545 29.095 -50.7945 28.385C-52.0345 27.675 -53.0045 26.69 -53.7045 25.43C-54.3945 24.17 -54.7395 22.72 -54.7395 21.08C-54.7395 19.31 -54.3995 17.775 -53.7195 16.475C-53.0395 15.165 -52.0945 14.15 -50.8845 13.43C-49.6745 12.71 -48.2745 12.35 -46.6845 12.35C-45.0045 12.35 -43.5795 12.745 -42.4095 13.535C-41.2295 14.315 -40.3545 15.42 -39.7845 16.85C-39.2145 18.28 -38.9995 19.965 -39.1395 21.905H-42.7245V20.585C-42.7345 18.825 -43.0445 17.54 -43.6545 16.73C-44.2645 15.92 -45.2245 15.515 -46.5345 15.515C-48.0145 15.515 -49.1145 15.975 -49.8345 16.895C-50.5545 17.805 -50.9145 19.14 -50.9145 20.9C-50.9145 22.54 -50.5545 23.81 -49.8345 24.71C-49.1145 25.61 -48.0645 26.06 -46.6845 26.06C-45.7945 26.06 -45.0295 25.865 -44.3895 25.475C-43.7395 25.075 -43.2395 24.5 -42.8895 23.75L-39.3195 24.83C-39.9395 26.29 -40.8995 27.425 -42.1995 28.235C-43.4895 29.045 -44.9145 29.45 -46.4745 29.45ZM-52.0545 21.905V19.175H-40.9095V21.905H-52.0545Z" fill="#FAFBFD"/>
</g>
<g id="Emoji">
<path id="Vector" d="M16.7726 22.9178C3.20356 22.9178 0 27.2637 0 29.2727C0 31.2817 1.66887 33 3.72723 33H29.8179C31.8762 33 33.5451 31.2752 33.5451 29.2727C33.5451 27.2703 30.3416 22.9178 16.7726 22.9178Z" fill="#78B159"/>
<path id="Vector_2" d="M26.8401 25.6853C26.8401 27.1119 25.6828 27.6234 24.2562 27.6234C22.8296 27.6234 21.6723 27.1128 21.6723 25.6853L22.318 19.8717C22.318 18.4451 22.8287 18.5793 24.2562 18.5793C25.6828 18.5793 26.1944 18.4442 26.1944 19.8717L26.8401 25.6853Z" fill="#662113"/>
<path id="Vector_3" d="M32.4904 17.8273C28.2134 13.9743 26.4812 8.45703 24.256 8.45703C22.0308 8.45703 20.2986 13.9743 16.0225 17.8273C14.2251 19.4468 15.0814 20.3832 17.5451 20.196C19.7414 20.0292 21.7951 19.5055 24.256 19.5055C26.7169 19.5055 28.7715 20.0301 30.9669 20.196C33.4306 20.3832 34.2869 19.4458 32.4904 17.8273Z" fill="#5C913B"/>
<path id="Vector_4" d="M31.1013 16.3001C27.8148 13.131 25.968 8.59125 24.2562 8.59125C22.5454 8.59125 20.6986 13.131 17.4121 16.3001C14.8002 18.8188 20.8346 19.3835 24.2562 16.3001C27.6769 19.3835 33.7122 18.8188 31.1013 16.3001Z" fill="#3E721D"/>
<path id="Vector_5" d="M31.1013 13.733C27.8148 10.7717 25.968 6.53107 24.2562 6.53107C22.5454 6.53107 20.6986 10.7717 17.4121 13.733C14.8002 16.0858 20.8346 16.6132 24.2562 13.733C27.6769 16.6132 33.7122 16.0849 31.1013 13.733Z" fill="#5C913B"/>
<path id="Vector_6" d="M29.5998 11.6302C27.0345 9.31834 25.5921 6.00763 24.2559 6.00763C22.9206 6.00763 21.4781 9.31834 18.9119 11.6302C16.8731 13.4668 21.5834 13.8795 24.2559 11.6302C26.9274 13.8786 31.6386 13.4668 29.5998 11.6302Z" fill="#3E721D"/>
<path id="Vector_7" d="M29.5998 9.70554C27.0345 7.39372 25.5921 4.08301 24.2559 4.08301C22.9206 4.08301 21.4781 7.39372 18.9119 9.70554C16.8731 11.5421 21.5834 11.9549 24.2559 9.70554C26.9274 11.9549 31.6386 11.5431 29.5998 9.70554Z" fill="#5C913B"/>
<path id="Vector_8" d="M28.5682 7.99761C26.4977 6.13213 25.3339 3.46063 24.2558 3.46063C23.1777 3.46063 22.0138 6.13213 19.9434 7.99761C18.2978 9.48012 22.0996 9.81277 24.2558 7.99761C26.412 9.81277 30.2147 9.48012 28.5682 7.99761Z" fill="#3E721D"/>
<path id="Vector_9" d="M28.5682 6.54961C26.4977 4.68413 25.3339 2.01263 24.2558 2.01263C23.1777 2.01263 22.0138 4.68413 19.9434 6.54961C18.2978 8.03212 22.0996 8.36477 24.2558 6.54961C26.412 8.36477 30.2147 8.03212 28.5682 6.54961Z" fill="#5C913B"/>
<path id="Vector_10" d="M27.538 4.41762C25.9633 2.99848 25.0771 0.965271 24.2562 0.965271C23.4362 0.965271 22.5501 2.99848 20.9744 4.41762C19.722 5.54604 22.6153 5.79856 24.2562 4.41762C25.8971 5.79949 28.7904 5.54604 27.538 4.41762Z" fill="#3E721D"/>
<path id="Vector_11" d="M27.538 3.45235C25.9633 2.03321 25.0771 0 24.2562 0C23.4362 0 22.5501 2.03321 20.9744 3.45235C19.722 4.58077 22.6153 4.83329 24.2562 3.45235C25.8971 4.83329 28.7904 4.58077 27.538 3.45235Z" fill="#5C913B"/>
<path id="Vector_12" d="M14.0712 30.2046C13.6761 30.2046 13.3239 29.9558 13.1915 29.584L8.52132 16.5079C8.41882 16.2219 8.46261 15.9228 8.63779 15.673C8.81297 15.4261 9.09811 15.2957 9.40188 15.2957H20.359C20.7327 15.2957 21.0709 15.5007 21.2181 15.8445L26.822 28.9112C26.946 29.2001 26.9161 29.5272 26.7438 29.789C26.5686 30.0518 26.276 30.2046 25.962 30.2046H14.0712Z" fill="#F4900C"/>
<path id="Vector_13" d="M3.79711 30.2045C3.48309 30.2045 3.18957 30.0461 3.01719 29.7852C2.84481 29.5224 2.81592 29.1907 2.93892 28.9018L8.54654 15.8174C8.69284 15.4745 9.03201 15.2518 9.40474 15.2518C9.77839 15.2518 10.1176 15.4754 10.2639 15.8174L15.8715 28.9009C15.9954 29.1907 15.9647 29.5215 15.7923 29.7843C15.6199 30.0461 15.3264 30.2045 15.0124 30.2045H3.79711Z" fill="#FFCC4D"/>
<path id="Vector_14" d="M9.40192 17.5656L7.53271 30.2047H11.2693L9.40192 17.5656Z" fill="#292F33"/>
<path id="Vector_15" d="M13.1637 29.1675L13.5811 30.2046H11.2693L13.1637 29.1675ZM5.63931 29.1675L5.22186 30.2046H7.53275L5.63931 29.1675Z" fill="#FFAC33"/>
<path id="Vector_16" d="M11.2694 30.2044C11.2694 30.2044 12.9681 29.7711 13.7983 29.0043L9.40204 17.5654L11.2694 30.2044ZM7.53283 30.2044C7.53283 30.2044 5.83415 29.7711 5.00391 29.0043L9.40111 17.5645L7.53283 30.2044Z" fill="#FFE8B6"/>
<path id="Vector_17" d="M12.6959 4.69638C12.6791 4.69638 12.6642 4.70197 12.6474 4.70197C12.6791 4.54916 12.6959 4.39168 12.6959 4.22955C12.6959 2.94272 11.6532 1.90002 10.3664 1.90002C9.53612 1.90002 8.81303 2.33704 8.40024 2.99117C8.14213 2.8924 7.86445 2.83276 7.57093 2.83276C6.38288 2.83276 5.4138 3.72451 5.2703 4.87343C5.00753 4.76813 4.72705 4.69638 4.42608 4.69638C3.13925 4.69638 2.09656 5.73908 2.09656 7.0259C2.09656 8.31273 3.13925 9.35542 4.42608 9.35542H12.6959C13.9827 9.35542 15.0254 8.31273 15.0254 7.0259C15.0254 5.73908 13.9827 4.69638 12.6959 4.69638Z" fill="#E1E8ED"/>
</g>
</g>
</svg>
